# xmcd
#
# Track frame offsets: 
#        150
#        16069
#        35974
#        51891
#
# Disc length: 955 seconds
#
# Revision: 1
# Processed by: cddbd v1.5.2PL0 Copyright (c) Steve Scherf et al.
# Submitted via: ExactAudioCopy v1.1
#
DISCID=2d03b904
DTITLE=三森すずこ - Light for Knight
DYEAR=2015
DGENRE=JPop
TTITLE0=Sun rise train
TTITLE1=Unknown Track
TTITLE2=Sun rise train (instrumental)
TTITLE3=Unknown Track (instrumental)
EXTD=YEAR: 2002
EXTT0=
EXTT1=
EXTT2=
EXTT3=
PLAYORDER=
